<svg width="270" height="340" viewBox="0 0 270 340" fill="none" xmlns="http://www.w3.org/2000/svg">
<g filter="url(#filter0_i_21_110)">
<rect width="270" height="340" fill="white"/>
</g>
<path d="M85.53 275.91C88.68 275.91 91.26 278.49 91.26 281.64V286.02C91.26 287.22 90.27 288.21 89.07 288.21C88.41 288.21 87.84 287.91 87.45 287.46C86.91 287.94 86.22 288.21 85.47 288.21C83.82 288.21 82.47 286.86 82.47 285.21V281.7C82.47 280.05 83.82 278.73 85.47 278.73C87.12 278.73 88.47 280.05 88.47 281.7V286.02C88.47 286.35 88.74 286.62 89.07 286.62C89.4 286.62 89.67 286.35 89.67 286.02V281.64C89.67 279.36 87.81 277.5 85.53 277.5C83.25 277.5 81.39 279.36 81.39 281.64V285.36C81.39 287.64 83.25 289.5 85.53 289.5V291.09C82.38 291.09 79.8 288.51 79.8 285.36V281.64C79.8 278.49 82.38 275.91 85.53 275.91ZM85.47 286.62C86.25 286.62 86.88 285.99 86.88 285.21V281.7C86.88 280.95 86.25 280.32 85.47 280.32C84.69 280.32 84.09 280.95 84.09 281.7V285.21C84.09 285.99 84.69 286.62 85.47 286.62ZM97.8286 294C96.2086 294 94.8586 292.65 94.8586 291.03V288.39H96.4486V291.03C96.4486 291.78 97.0786 292.41 97.8286 292.41C98.6086 292.41 99.2386 291.78 99.2386 291.03V287.28C99.2386 285.42 98.3386 284.58 97.2886 283.59C96.1486 282.51 94.8586 281.28 94.8586 278.73V275.97C94.8586 274.35 96.2086 273 97.8286 273C99.4786 273 100.829 274.35 100.829 275.97V278.46H99.2386V275.97C99.2386 275.22 98.6086 274.59 97.8286 274.59C97.0786 274.59 96.4486 275.22 96.4486 275.97V278.73C96.4486 280.59 97.3486 281.46 98.3986 282.45C99.5386 283.53 100.829 284.73 100.829 287.28V291.03C100.829 292.65 99.4786 294 97.8286 294ZM103.839 273H110.409V274.59H107.919V294H106.329V274.59H103.839V273ZM116.194 273V294H114.604V273H116.194ZM123.961 294C122.341 294 120.991 292.65 120.991 291.03V275.97C120.991 274.35 122.341 273 123.961 273C125.611 273 126.961 274.35 126.961 275.97V278.46H125.371V275.97C125.371 275.22 124.741 274.59 123.961 274.59C123.211 274.59 122.581 275.22 122.581 275.97V291.03C122.581 291.78 123.211 292.41 123.961 292.41C124.741 292.41 125.371 291.78 125.371 291.03V284.28H124.171V282.72H126.961V291.03C126.961 292.65 125.611 294 123.961 294ZM139.091 273V294H137.501V280.11L136.091 285.57H134.771L133.361 280.11V294H131.771V273H133.181L135.431 281.79L137.681 273H139.091ZM151.702 294H150.082L149.302 289.2H145.732L144.922 294H143.302L146.842 273H148.192L151.702 294ZM147.502 278.58L146.002 287.61H149.032L147.502 278.58ZM154.112 273H160.682V274.59H158.192V294H156.602V274.59H154.112V273ZM166.467 273V294H164.877V273H166.467ZM177.385 292.41V294H171.265L176.365 274.59H172.285V273H178.405L173.335 292.41H177.385ZM189.097 273V274.59H184.807V282.69H186.667V284.31H184.807V292.41H189.097V294H183.217V273H189.097ZM196.13 294H193.91V273H196.37C198.53 273 199.88 274.44 199.88 276.75V290.49C199.88 292.65 198.44 294 196.13 294ZM195.5 274.59V292.41H196.13C197.57 292.41 198.29 291.78 198.29 290.49V276.75C198.29 275.31 197.63 274.59 196.37 274.59H195.5ZM206.911 294H204.691V273H207.151C209.311 273 210.661 274.44 210.661 276.75V290.49C210.661 292.65 209.221 294 206.911 294ZM206.281 274.59V292.41H206.911C208.351 292.41 209.071 291.78 209.071 290.49V276.75C209.071 275.31 208.411 274.59 207.151 274.59H206.281Z" fill="black"/>
<path d="M63.38 267.019C63.38 267.019 59.5845 269.261 57.4739 269.897C56.3411 268.594 54.8356 267.671 53.161 267.252C51.4864 266.833 49.7237 266.938 48.111 267.554C46.4983 268.169 45.1134 269.265 44.1439 270.694C43.1743 272.122 42.6669 273.813 42.69 275.539V277.42C39.3845 277.506 36.1092 276.773 33.1557 275.286C30.2022 273.8 27.6621 271.606 25.7618 268.9C25.7618 268.9 18.2382 285.828 35.1664 293.352C31.2927 295.981 26.6781 297.3 22 297.114C38.9282 306.518 59.6182 297.114 59.6182 275.483C59.6165 274.959 59.5661 274.436 59.4677 273.922C61.3874 272.029 63.38 267.019 63.38 267.019Z" stroke="black" stroke-width="4" stroke-linecap="round" stroke-linejoin="round"/>
<path d="M87.42 201.1L79.83 224.38L78.3 223.9L85.92 200.62L87.42 201.1ZM98.0466 202V223H96.4566V209.11L95.0466 214.57H93.7266L92.3166 209.11V223H90.7266V202H92.1366L94.3866 210.79L96.6366 202H98.0466ZM111.377 202V223H109.787V209.11L108.377 214.57H107.057L105.647 209.11V223H104.057V202H105.467L107.717 210.79L109.967 202H111.377ZM119.157 223C117.537 223 116.187 221.65 116.187 220.03V202H117.777V220.03C117.777 220.78 118.407 221.41 119.157 221.41C119.937 221.41 120.567 220.78 120.567 220.03V202H122.157V220.03C122.157 221.65 120.807 223 119.157 223ZM128.737 223C127.117 223 125.767 221.65 125.767 220.03V202H127.357V220.03C127.357 220.78 127.987 221.41 128.737 221.41C129.517 221.41 130.147 220.78 130.147 220.03V202H131.737V220.03C131.737 221.65 130.387 223 128.737 223ZM138.317 223C136.697 223 135.347 221.65 135.347 220.03V204.97C135.347 203.35 136.697 202 138.317 202C139.967 202 141.317 203.35 141.317 204.97V207.46H139.727V204.97C139.727 204.22 139.097 203.59 138.317 203.59C137.567 203.59 136.937 204.22 136.937 204.97V220.03C136.937 220.78 137.567 221.41 138.317 221.41C139.097 221.41 139.727 220.78 139.727 220.03V213.28H138.527V211.72H141.317V220.03C141.317 221.65 139.967 223 138.317 223ZM147.897 223C146.277 223 144.927 221.65 144.927 220.03V204.97C144.927 203.35 146.277 202 147.897 202C149.547 202 150.897 203.35 150.897 204.97V207.46H149.307V204.97C149.307 204.22 148.677 203.59 147.897 203.59C147.147 203.59 146.517 204.22 146.517 204.97V220.03C146.517 220.78 147.147 221.41 147.897 221.41C148.677 221.41 149.307 220.78 149.307 220.03V213.28H148.107V211.72H150.897V220.03C150.897 221.65 149.547 223 147.897 223ZM157.297 202V223H155.707V202H157.297Z" fill="black"/>
<path d="M42.19 187.933C36.6118 187.876 31.2392 190.036 27.2532 193.939C23.2671 197.842 20.9937 203.168 20.9325 208.746C20.954 213.154 22.3721 217.442 24.9831 220.994C27.5942 224.546 31.2638 227.179 35.4649 228.515C36.5278 228.708 36.9143 228.071 36.9143 227.51C36.9143 226.95 36.9143 225.713 36.9143 223.974C31.0008 225.23 29.7447 221.191 29.7447 221.191C29.351 219.923 28.5141 218.839 27.387 218.138C25.4545 216.862 27.5416 216.882 27.5416 216.882C28.2096 216.971 28.8487 217.21 29.411 217.582C29.9732 217.953 30.4441 218.447 30.7882 219.027C31.388 220.067 32.372 220.829 33.5286 221.151C34.6851 221.473 35.9217 221.328 36.9722 220.747C37.0803 219.688 37.5595 218.702 38.325 217.964C33.6097 217.442 28.6625 215.664 28.6625 207.683C28.6203 205.601 29.3896 203.584 30.8076 202.059C30.1618 200.272 30.238 198.303 31.0201 196.571C31.0201 196.571 32.8174 196.011 36.8176 198.697C40.2998 197.769 43.9642 197.769 47.4464 198.697C51.5046 196.011 53.2439 196.571 53.2439 196.571C54.026 198.303 54.1023 200.272 53.4565 202.059C54.9074 203.556 55.7184 205.559 55.7175 207.644C55.7175 215.645 50.7316 217.403 46.055 217.925C46.5671 218.422 46.9626 219.027 47.2132 219.695C47.4638 220.363 47.5633 221.079 47.5044 221.79V227.491C47.5044 227.491 47.8909 228.708 48.9537 228.496C53.1429 227.152 56.8002 224.518 59.4031 220.971C62.0061 217.424 63.4216 213.145 63.4475 208.746C63.3863 203.168 61.1129 197.842 57.1268 193.939C53.1407 190.036 47.7682 187.876 42.19 187.933Z" fill="black"/>
<path d="M50.5783 116H33.8018C28.3884 116 24 120.388 24 125.802V142.578C24 147.992 28.3884 152.38 33.8018 152.38H50.5782C55.9916 152.38 60.38 147.992 60.38 142.578V125.802C60.3801 120.388 55.9916 116 50.5783 116Z" stroke="black" stroke-width="4.12126" stroke-miterlimit="10"/>
<path d="M42.19 142.972C47.0399 142.972 50.9715 139.04 50.9715 134.19C50.9715 129.34 47.0399 125.409 42.19 125.409C37.3402 125.409 33.4086 129.34 33.4086 134.19C33.4086 139.04 37.3402 142.972 42.19 142.972Z" stroke="black" stroke-width="4.12126" stroke-miterlimit="10"/>
<path d="M52.8531 125.409C53.8924 125.409 54.7349 124.566 54.7349 123.527C54.7349 122.488 53.8924 121.645 52.8531 121.645C51.8139 121.645 50.9714 122.488 50.9714 123.527C50.9714 124.566 51.8139 125.409 52.8531 125.409Z" fill="black"/>
<path d="M85.53 125.91C88.68 125.91 91.26 128.49 91.26 131.64V136.02C91.26 137.22 90.27 138.21 89.07 138.21C88.41 138.21 87.84 137.91 87.45 137.46C86.91 137.94 86.22 138.21 85.47 138.21C83.82 138.21 82.47 136.86 82.47 135.21V131.7C82.47 130.05 83.82 128.73 85.47 128.73C87.12 128.73 88.47 130.05 88.47 131.7V136.02C88.47 136.35 88.74 136.62 89.07 136.62C89.4 136.62 89.67 136.35 89.67 136.02V131.64C89.67 129.36 87.81 127.5 85.53 127.5C83.25 127.5 81.39 129.36 81.39 131.64V135.36C81.39 137.64 83.25 139.5 85.53 139.5V141.09C82.38 141.09 79.8 138.51 79.8 135.36V131.64C79.8 128.49 82.38 125.91 85.53 125.91ZM85.47 136.62C86.25 136.62 86.88 135.99 86.88 135.21V131.7C86.88 130.95 86.25 130.32 85.47 130.32C84.69 130.32 84.09 130.95 84.09 131.7V135.21C84.09 135.99 84.69 136.62 85.47 136.62ZM97.8286 144C96.2086 144 94.8586 142.65 94.8586 141.03V138.39H96.4486V141.03C96.4486 141.78 97.0786 142.41 97.8286 142.41C98.6086 142.41 99.2386 141.78 99.2386 141.03V137.28C99.2386 135.42 98.3386 134.58 97.2886 133.59C96.1486 132.51 94.8586 131.28 94.8586 128.73V125.97C94.8586 124.35 96.2086 123 97.8286 123C99.4786 123 100.829 124.35 100.829 125.97V128.46H99.2386V125.97C99.2386 125.22 98.6086 124.59 97.8286 124.59C97.0786 124.59 96.4486 125.22 96.4486 125.97V128.73C96.4486 130.59 97.3486 131.46 98.3986 132.45C99.5386 133.53 100.829 134.73 100.829 137.28V141.03C100.829 142.65 99.4786 144 97.8286 144ZM103.839 123H110.409V124.59H107.919V144H106.329V124.59H103.839V123ZM116.194 123V144H114.604V123H116.194ZM123.961 144C122.341 144 120.991 142.65 120.991 141.03V125.97C120.991 124.35 122.341 123 123.961 123C125.611 123 126.961 124.35 126.961 125.97V128.46H125.371V125.97C125.371 125.22 124.741 124.59 123.961 124.59C123.211 124.59 122.581 125.22 122.581 125.97V141.03C122.581 141.78 123.211 142.41 123.961 142.41C124.741 142.41 125.371 141.78 125.371 141.03V134.28H124.171V132.72H126.961V141.03C126.961 142.65 125.611 144 123.961 144ZM139.091 123V144H137.501V130.11L136.091 135.57H134.771L133.361 130.11V144H131.771V123H133.181L135.431 131.79L137.681 123H139.091ZM151.702 144H150.082L149.302 139.2H145.732L144.922 144H143.302L146.842 123H148.192L151.702 144ZM147.502 128.58L146.002 137.61H149.032L147.502 128.58ZM154.112 123H160.682V124.59H158.192V144H156.602V124.59H154.112V123ZM163.077 123H169.647V124.59H167.157V144H165.567V124.59H163.077V123ZM175.432 123V144H173.842V123H175.432ZM186.35 142.41V144H180.23L185.33 124.59H181.25V123H187.37L182.3 142.41H186.35ZM198.062 123V124.59H193.772V132.69H195.632V134.31H193.772V142.41H198.062V144H192.182V123H198.062ZM205.095 144H202.875V123H205.335C207.495 123 208.845 124.44 208.845 126.75V140.49C208.845 142.65 207.405 144 205.095 144ZM204.465 124.59V142.41H205.095C206.535 142.41 207.255 141.78 207.255 140.49V126.75C207.255 125.31 206.595 124.59 205.335 124.59H204.465Z" fill="black"/>
<path d="M38.95 38.25V45.05C38.95 47 38.25 48.5 37 49.55C38.25 50.6 38.95 52.3 38.95 54.5V67H36.3V54.5C36.3 52.1 35.2 50.85 33.1 50.85H31.65V67H29V32H33.1C36.7 32 38.95 34.4 38.95 38.25ZM36.3 45.05V38.25C36.3 35.85 35.2 34.65 33.1 34.65H31.65V48.2H32.7C35.1 48.2 36.3 47.15 36.3 45.05ZM57.7453 32V34.65H50.5953V48.15H53.6953V50.85H50.5953V64.35H57.7453V67H47.9453V32H57.7453ZM69.4676 67H65.7676V32H69.8676C73.4676 32 75.7176 34.4 75.7176 38.25V61.15C75.7176 64.75 73.3176 67 69.4676 67ZM68.4176 34.65V64.35H69.4676C71.8676 64.35 73.0676 63.3 73.0676 61.15V38.25C73.0676 35.85 71.9676 34.65 69.8676 34.65H68.4176ZM93.5363 32V34.65H86.3863V48.15H89.4863V50.85H86.3863V64.35H93.5363V67H83.7363V32H93.5363ZM104.509 67C101.809 67 99.5586 64.75 99.5586 62.05V57.65H102.209V62.05C102.209 63.3 103.259 64.35 104.509 64.35C105.809 64.35 106.859 63.3 106.859 62.05V55.8C106.859 52.7 105.359 51.3 103.609 49.65C101.709 47.85 99.5586 45.8 99.5586 41.55V36.95C99.5586 34.25 101.809 32 104.509 32C107.259 32 109.509 34.25 109.509 36.95V41.1H106.859V36.95C106.859 35.7 105.809 34.65 104.509 34.65C103.259 34.65 102.209 35.7 102.209 36.95V41.55C102.209 44.65 103.709 46.1 105.459 47.75C107.359 49.55 109.509 51.55 109.509 55.8V62.05C109.509 64.75 107.259 67 104.509 67ZM132.975 67C130.275 67 128.025 64.75 128.025 62.05V57.65H130.675V62.05C130.675 63.3 131.725 64.35 132.975 64.35C134.275 64.35 135.325 63.3 135.325 62.05V55.8C135.325 52.7 133.825 51.3 132.075 49.65C130.175 47.85 128.025 45.8 128.025 41.55V36.95C128.025 34.25 130.275 32 132.975 32C135.725 32 137.975 34.25 137.975 36.95V41.1H135.325V36.95C135.325 35.7 134.275 34.65 132.975 34.65C131.725 34.65 130.675 35.7 130.675 36.95V41.55C130.675 44.65 132.175 46.1 133.925 47.75C135.825 49.55 137.975 51.55 137.975 55.8V62.05C137.975 64.75 135.725 67 132.975 67ZM148.942 67C146.242 67 143.992 64.75 143.992 62.05V36.95C143.992 34.25 146.242 32 148.942 32C151.692 32 153.942 34.25 153.942 36.95V62.05C153.942 64.75 151.692 67 148.942 67ZM148.942 34.65C147.692 34.65 146.642 35.7 146.642 36.95V62.05C146.642 63.3 147.692 64.35 148.942 64.35C150.242 64.35 151.292 63.3 151.292 62.05V36.95C151.292 35.7 150.242 34.65 148.942 34.65ZM169.909 36.95V41.1H167.259V36.95C167.259 35.7 166.209 34.65 164.909 34.65C163.659 34.65 162.609 35.7 162.609 36.95V62.05C162.609 63.3 163.659 64.35 164.909 64.35C166.209 64.35 167.259 63.3 167.259 62.05V57.85H169.909V62.05C169.909 64.75 167.659 67 164.909 67C162.209 67 159.959 64.75 159.959 62.05V36.95C159.959 34.25 162.209 32 164.909 32C167.659 32 169.909 34.25 169.909 36.95ZM180.576 32V67H177.926V32H180.576ZM201.572 67H198.872L197.572 59H191.622L190.272 67H187.572L193.472 32H195.722L201.572 67ZM194.572 41.3L192.072 56.35H197.122L194.572 41.3ZM211.24 32V67H208.59V32H211.24ZM224.186 67C221.486 67 219.236 64.75 219.236 62.05V57.65H221.886V62.05C221.886 63.3 222.936 64.35 224.186 64.35C225.486 64.35 226.536 63.3 226.536 62.05V55.8C226.536 52.7 225.036 51.3 223.286 49.65C221.386 47.85 219.236 45.8 219.236 41.55V36.95C219.236 34.25 221.486 32 224.186 32C226.936 32 229.186 34.25 229.186 36.95V41.1H226.536V36.95C226.536 35.7 225.486 34.65 224.186 34.65C222.936 34.65 221.886 35.7 221.886 36.95V41.55C221.886 44.65 223.386 46.1 225.136 47.75C227.036 49.55 229.186 51.55 229.186 55.8V62.05C229.186 64.75 226.936 67 224.186 67ZM239.353 64.95C239.353 66.05 238.453 66.95 237.353 66.95C236.253 66.95 235.353 66.05 235.353 64.95C235.353 63.85 236.253 63 237.353 63C238.453 63 239.353 63.85 239.353 64.95ZM239.353 55.25C239.353 56.35 238.453 57.2 237.353 57.2C236.253 57.2 235.353 56.35 235.353 55.25C235.353 54.15 236.253 53.25 237.353 53.25C238.453 53.25 239.353 54.15 239.353 55.25Z" fill="black"/>
<defs>
<filter id="filter0_i_21_110" x="0" y="0" width="270" height="344" filterUnits="userSpaceOnUse" color-interpolation-filters="sRGB">
<feFlood flood-opacity="0" result="BackgroundImageFix"/>
<feBlend mode="normal" in="SourceGraphic" in2="BackgroundImageFix" result="shape"/>
<feColorMatrix in="SourceAlpha" type="matrix" values="0 0 0 0 0 0 0 0 0 0 0 0 0 0 0 0 0 0 127 0" result="hardAlpha"/>
<feOffset dy="4"/>
<feGaussianBlur stdDeviation="2"/>
<feComposite in2="hardAlpha" operator="arithmetic" k2="-1" k3="1"/>
<feColorMatrix type="matrix" values="0 0 0 0 0 0 0 0 0 0 0 0 0 0 0 0 0 0 0.25 0"/>
<feBlend mode="normal" in2="shape" result="effect1_innerShadow_21_110"/>
</filter>
</defs>
</svg>
