<svg width="200" height="45" viewBox="0 0 200 45" fill="none" xmlns="http://www.w3.org/2000/svg">
<path fill-rule="evenodd" clip-rule="evenodd" d="M25.8096 40.0228V28.0856L5.02256 16.1492V28.0856L25.8096 40.0228Z" fill="url(#paint0_linear_4_24)"/>
<path d="M25.8096 4.21198L5.02256 16.1492V28.0856L25.8096 16.1492V4.21198Z" fill="#7128BA"/>
<path d="M31.0927 40.0228L51.8795 28.0866V16.1492L31.0927 28.0866V40.0228Z" fill="#7128BA"/>
<path d="M114.517 4.21198L110.282 5.69039V39.3099H114.517V4.21198ZM159.811 4.21198L155.576 5.69039V22.1069C154.182 20.4955 152.059 19.3729 149.786 19.3729C146.747 19.3729 144.301 20.5978 142.651 22.5399C141.003 24.4826 140.145 27.1152 140.145 29.9199C140.145 32.7004 140.996 35.2213 142.613 37.0475C144.23 38.8738 146.607 39.9781 149.531 39.9781C151.842 39.9781 154.103 38.8476 155.576 37.1997V39.3099H159.811V4.21198ZM64.3997 5.6122L59.9108 7.06052V39.3099H64.3997V5.6122ZM74.6605 19.3567L70.4255 20.8362V39.3099H74.6605V27.6038C74.6605 25.1753 76.8375 23.4077 79.0479 23.4077C81.9404 23.4077 83.4767 25.2321 83.4767 27.6038V39.3099H87.712V27.1578C87.712 23.0539 84.6274 19.4174 80.2799 19.4174C77.9776 19.4174 75.9826 20.4356 74.6605 21.7691V19.3567ZM123.567 19.4014L119.333 20.8808V32.2806C119.333 36.3804 122.373 40.0228 126.721 40.0228C129.051 40.0228 131.059 39.0025 132.385 37.6501V39.3099H136.618V19.4014L132.385 20.8808V31.879C132.385 34.2579 130.207 36.0325 127.997 36.0325C126.525 36.0325 125.434 35.5581 124.699 34.8218C123.964 34.0856 123.567 33.0685 123.567 31.879V19.4014ZM101.219 19.4174C95.8381 19.4174 91.2366 24.0486 91.2366 29.7426C91.2366 35.3948 95.8381 40.0228 101.219 40.0228C102.756 40.0228 104.658 39.6425 106.47 38.4084L106.739 38.2269V33.1923L105.727 34.3078C105.727 34.3078 105.404 34.6696 104.657 35.0762C103.911 35.482 102.777 35.8986 101.219 35.8986C97.9184 35.8986 95.4289 33.1668 95.4289 29.7426C95.4289 26.2695 97.9134 23.5853 101.219 23.5853C102.774 23.5853 103.908 24.0102 104.653 24.4269C105.399 24.8427 105.721 25.2148 105.721 25.2148L106.739 26.3648V21.2043L106.461 21.0248C104.658 19.8434 102.768 19.4174 101.219 19.4174ZM172.866 19.4174C167.848 19.4174 163.31 23.5283 163.31 30.1432C163.31 33.2063 164.535 35.7171 166.464 37.4166C168.392 39.1162 171.002 40.0228 173.802 40.0228C177.023 40.0228 179.051 38.9722 180.778 37.8863L181.063 37.7067V33.2886L180.175 33.8472C178.464 34.9243 177.085 35.8986 173.802 35.8986C171.946 35.8986 170.511 35.4038 169.49 34.5734C168.651 33.8899 168.144 32.9184 167.845 31.7827H182.328L182.338 31.1783C182.404 27.394 181.481 24.4421 179.79 22.4362C178.097 20.4296 175.656 19.4174 172.866 19.4174ZM149.999 23.5406C153.277 23.5406 155.576 26.0147 155.576 29.6979C155.576 33.2865 153.272 35.8095 149.999 35.8095C146.772 35.8095 144.463 33.2865 144.463 29.6979C144.463 26.0147 146.767 23.5406 149.999 23.5406ZM172.866 23.6299C174.604 23.6299 175.833 24.3284 176.661 25.2656C177.321 26.0127 177.638 26.9 177.768 27.7021H167.883C168.589 24.9066 170.497 23.6299 172.866 23.6299Z" fill="black"/>
<path d="M182.565 20.027C182.032 20.027 181.588 19.9032 181.231 19.6578C180.874 19.4143 180.613 19.1264 180.448 18.7939C180.28 18.4614 180.196 18.1733 180.196 17.93C180.196 17.6509 180.302 17.3944 180.514 17.1592C180.726 16.9261 180.964 16.7638 181.231 16.6725L181.382 16.6359C181.415 16.6359 181.437 16.6501 181.448 16.6806C181.458 16.7099 181.464 16.7535 181.464 16.8104C181.53 17.4645 181.67 18.004 181.882 18.429C182.094 18.8526 182.505 19.0657 183.115 19.0657C183.526 19.0657 183.87 18.9369 184.147 18.6803C184.426 18.4227 184.66 18.0071 184.849 17.4311C185.04 16.855 185.213 16.0671 185.368 15.0661L186.803 5.52217H186.718C186.495 5.52217 186.2 5.48166 185.833 5.40044C185.277 5.29499 184.85 5.2423 184.55 5.2423C184.028 5.2423 183.639 5.31521 183.383 5.46116C183.127 5.60727 182.883 5.80902 182.65 6.06571C182.582 6.14673 182.523 6.21167 182.472 6.26042C182.422 6.30692 182.376 6.32925 182.332 6.32925C182.255 6.32925 182.216 6.28768 182.216 6.20357L182.232 6.01281C182.332 5.39622 182.607 4.94192 183.057 4.64993C183.507 4.35787 184.149 4.21198 184.984 4.21198C185.338 4.21198 185.71 4.24234 186.101 4.30131C186.179 4.31244 186.336 4.32955 186.574 4.354C186.814 4.37626 187.063 4.3864 187.319 4.3864C187.551 4.3864 187.737 4.37626 187.877 4.354C188.017 4.32955 188.176 4.28278 188.354 4.21198C188.185 4.71298 188.076 5.13593 188.024 5.48166C187.975 5.82529 187.945 6.04839 187.935 6.15088L186.783 13.9995C186.497 15.9443 185.986 17.4331 185.252 18.4694C184.517 19.5078 183.621 20.027 182.565 20.027Z" fill="black"/>
<path d="M189.395 16.5144C189.35 16.5144 189.314 16.5043 189.286 16.4859C189.26 16.4697 189.248 16.4503 189.248 16.429C189.248 16.3937 189.28 16.3187 189.345 16.2019C189.411 16.0833 189.462 15.9202 189.496 15.7112C189.539 15.466 189.578 15.2405 189.612 15.0378C189.645 14.8351 189.679 14.6463 189.713 14.4701C189.992 12.8749 190.178 11.7594 190.271 11.1237C190.366 10.489 190.408 10.0264 190.395 9.73641C190.395 9.5853 190.384 9.47471 190.36 9.40384C190.339 9.33375 190.291 9.29853 190.213 9.29853C190.112 9.29853 189.984 9.38672 189.829 9.56192C189.674 9.73535 189.529 9.93837 189.395 10.1704C189.341 10.2759 189.29 10.3672 189.244 10.4423C189.199 10.5183 189.163 10.5741 189.135 10.6086C189.109 10.6439 189.079 10.6613 189.046 10.6613C189.001 10.6613 188.968 10.6439 188.945 10.6086C188.924 10.5741 188.914 10.5274 188.914 10.4706C188.914 10.2496 189.032 9.94119 189.271 9.54586C189.511 9.14848 189.794 8.79542 190.12 8.48722C190.448 8.17678 190.74 8.02074 190.996 8.02074C191.208 8.02074 191.355 8.10901 191.438 8.28428C191.521 8.46074 191.562 8.73357 191.562 9.10382C191.562 9.61778 191.458 10.3114 191.248 11.1845H191.279C192.336 9.07522 193.315 8.02074 194.215 8.02074C194.449 8.02074 194.63 8.08872 194.757 8.22348C194.886 8.35641 194.951 8.5459 194.951 8.79147C194.951 9.04894 194.898 9.31064 194.792 9.57833C194.686 9.84595 194.558 10.0681 194.408 10.2434C194.258 10.4168 194.122 10.503 193.998 10.503C193.92 10.503 193.893 10.4503 193.916 10.3449C193.949 10.1826 193.967 10.056 193.967 9.96359C193.967 9.68266 193.821 9.5417 193.532 9.5417C193.188 9.5417 192.843 9.75169 192.497 10.1704C192.153 10.5902 191.85 11.1024 191.589 11.7078C191.328 12.3142 191.147 12.8679 191.047 13.3707C190.915 13.9063 190.832 14.4649 190.799 15.0459C190.775 15.2681 190.676 15.4922 190.504 15.7193C190.333 15.9464 190.136 16.1362 189.914 16.2872C189.692 16.4384 189.519 16.5144 189.395 16.5144Z" fill="black"/>
<defs>
<linearGradient id="paint0_linear_4_24" x1="24.3234" y1="34.7264" x2="9.90436" y2="26.105" gradientUnits="userSpaceOnUse">
<stop stop-color="#6A26AF"/>
<stop offset="1"/>
</linearGradient>
</defs>
</svg>
