<svg width="689" height="166" viewBox="0 0 689 166" fill="none" xmlns="http://www.w3.org/2000/svg">
<path d="M482.96 143V148.44C482.96 150 482.4 151.2 481.4 152.04C482.4 152.88 482.96 154.24 482.96 156V166H480.84V156C480.84 154.08 479.96 153.08 478.28 153.08H477.12V166H475V138H478.28C481.16 138 482.96 139.92 482.96 143ZM480.84 148.44V143C480.84 141.08 479.96 140.12 478.28 140.12H477.12V150.96H477.96C479.88 150.96 480.84 150.12 480.84 148.44ZM492.516 166C490.356 166 488.556 164.2 488.556 162.04V141.96C488.556 139.8 490.356 138 492.516 138C494.716 138 496.516 139.8 496.516 141.96V162.04C496.516 164.2 494.716 166 492.516 166ZM492.516 140.12C491.516 140.12 490.676 140.96 490.676 141.96V162.04C490.676 163.04 491.516 163.88 492.516 163.88C493.556 163.88 494.396 163.04 494.396 162.04V141.96C494.396 140.96 493.556 140.12 492.516 140.12ZM511.73 166H509.57L508.53 159.6H503.77L502.69 166H500.53L505.25 138H507.05L511.73 166ZM506.13 145.44L504.13 157.48H508.17L506.13 145.44ZM520.304 166H517.344V138H520.624C523.504 138 525.304 139.92 525.304 143V161.32C525.304 164.2 523.384 166 520.304 166ZM519.464 140.12V163.88H520.304C522.224 163.88 523.184 163.04 523.184 161.32V143C523.184 141.08 522.304 140.12 520.624 140.12H519.464ZM539.319 138H548.079V140.12H544.759V166H542.639V140.12H539.319V138ZM556.032 166C553.872 166 552.072 164.2 552.072 162.04V141.96C552.072 139.8 553.872 138 556.032 138C558.232 138 560.032 139.8 560.032 141.96V162.04C560.032 164.2 558.232 166 556.032 166ZM556.032 140.12C555.032 140.12 554.192 140.96 554.192 141.96V162.04C554.192 163.04 555.032 163.88 556.032 163.88C557.072 163.88 557.912 163.04 557.912 162.04V141.96C557.912 140.96 557.072 140.12 556.032 140.12ZM578.565 138V166H576.445V138H578.565ZM594.523 166H592.603L588.683 148.6V166H586.563V138H588.483L592.403 155.4V138H594.523V166ZM608.899 141.96V145.28H606.779V141.96C606.779 140.96 605.939 140.12 604.899 140.12C603.899 140.12 603.059 140.96 603.059 141.96V162.04C603.059 163.04 603.899 163.88 604.899 163.88C605.939 163.88 606.779 163.04 606.779 162.04V158.68H608.899V162.04C608.899 164.2 607.099 166 604.899 166C602.739 166 600.939 164.2 600.939 162.04V141.96C600.939 139.8 602.739 138 604.899 138C607.099 138 608.899 139.8 608.899 141.96ZM623.153 163.88V166H615.313V138H617.433V163.88H623.153ZM631.11 166C628.95 166 627.15 164.2 627.15 162.04V138H629.27V162.04C629.27 163.04 630.11 163.88 631.11 163.88C632.15 163.88 632.99 163.04 632.99 162.04V138H635.11V162.04C635.11 164.2 633.31 166 631.11 166ZM644.483 166H641.523V138H644.803C647.683 138 649.483 139.92 649.483 143V161.32C649.483 164.2 647.563 166 644.483 166ZM643.643 140.12V163.88H644.483C646.403 163.88 647.363 163.04 647.363 161.32V143C647.363 141.08 646.483 140.12 644.803 140.12H643.643ZM663.738 138V140.12H658.018V150.92H660.498V153.08H658.018V163.88H663.738V166H655.898V138H663.738Z" fill="black" fill-opacity="0.8"/>
<path d="M132.09 17.73C132.09 30.86 94.91 99.76 95.17 114.97C96.08 116.53 92.83 119 87.89 119C84.51 119 75.28 116.92 73.85 106.39C72.81 98.85 76.97 60.37 76.32 28.52C66.57 56.47 41.74 117.31 17.95 117.31C6.12 117.31 1.31 111.72 0.919999 109.25C0.659999 106.78 3.78 109.12 7.16 109.12C37.19 109.12 66.83 23.71 74.89 7.71999C74.89 7.33 74.89 7.06999 74.89 6.68C74.63 4.99 75.8 4.72999 77.75 5.24999C78.01 5.38 78.27 5.38 78.4 5.51C84.12 7.45999 94.39 15.26 94.91 19.03C95.43 23.06 91.14 53.35 92.31 78.83C101.8 59.59 119.87 20.72 119.87 6.93999C119.87 0.829995 132.09 10.32 132.09 17.73ZM167.678 74.8C170.538 70.64 170.538 78.31 169.758 79.48C164.688 87.54 144.928 117.7 132.968 119.13C132.838 119.13 132.578 119.13 132.188 119.13C129.588 119.13 116.067 117.7 116.847 108.47C117.627 99.24 135.698 62.58 136.218 57.38C136.738 51.14 150.778 59.72 150.388 64.92C149.998 69.34 139.078 96.38 134.918 108.34C134.268 110.55 134.398 111.85 135.568 111.85C141.158 111.85 159.228 87.15 167.678 74.8ZM150.128 47.37C144.538 47.37 138.428 43.47 138.818 38.92C139.468 32.03 148.568 23.19 155.458 23.19C160.658 23.19 164.168 26.44 163.778 31.9C163.257 37.49 157.538 47.37 150.128 47.37ZM213.3 71.03C211.48 72.72 208.88 65.44 199.91 65.44C195.36 65.44 183.79 91.83 182.75 105.09C182.23 111.07 184.7 111.85 187.17 111.85C196.27 111.85 216.81 85.72 226.43 74.41C228.9 71.29 230.07 77.27 229.42 78.18C223.7 86.24 199.91 119.13 181.71 119.13C169.1 119.13 162.6 108.86 163.12 102.75C164.16 90.66 180.93 54.13 194.58 54.13C213.3 54.13 215.12 69.34 213.3 71.03ZM293.979 74.28C296.579 70.51 297.099 77.66 296.189 78.7C290.339 86.63 277.469 105.09 260.309 107.3C254.329 114.71 246.919 120.17 239.509 120.17C227.159 120.17 220.009 107.43 220.659 99.63C221.179 93.78 226.899 84.03 231.969 77.4C234.959 64.14 247.829 52.44 258.229 52.44C269.669 52.44 275.779 65.7 274.869 75.19C274.349 81.69 270.839 91.05 265.639 99.63C275.779 96.12 287.089 84.29 293.979 74.28ZM257.709 57.77C251.989 57.77 244.579 63.1 240.159 70.25C243.929 70.64 253.029 74.02 252.639 78.7C252.379 81.04 247.439 87.8 242.759 94.56C245.229 96.51 248.089 98.07 251.339 99.11C257.059 90.01 261.349 78.18 261.999 72.07C262.779 61.8 262.259 57.77 257.709 57.77ZM236.649 111.72C240.029 111.72 243.539 109.12 246.789 105.35C243.799 104.05 241.199 102.36 238.859 100.15C234.959 106.52 232.619 111.72 236.649 111.72ZM423.356 130.7C427.386 130.7 432.586 124.46 432.586 129.53C432.586 132.26 426.086 138.89 417.506 138.89C384.356 138.89 375.386 96.64 368.106 79.61C361.996 96.12 356.926 111.07 356.926 116.01C356.926 120.43 340.286 117.18 340.286 108.6C340.286 99.76 362.646 55.43 368.366 22.93C352.636 34.89 339.896 52.96 339.896 64.01C339.896 72.98 344.446 75.84 341.066 75.84C337.686 75.84 327.546 69.08 327.546 52.83C327.546 37.49 360.826 5.63999 396.056 5.63999C453.256 5.63999 433.496 61.54 381.496 68.69C385.526 79.22 395.276 130.7 423.356 130.7ZM379.546 15.91C384.096 18.51 388.516 22.54 388.256 25.27C387.996 27.61 381.886 43.21 375.126 60.89C420.496 58.16 423.486 10.84 397.486 10.84C391.766 10.84 385.656 12.79 379.546 15.91ZM485.881 74.28C488.481 70.51 489.001 77.66 488.091 78.7C482.241 86.63 469.371 105.09 452.211 107.3C446.231 114.71 438.821 120.17 431.411 120.17C419.061 120.17 411.911 107.43 412.561 99.63C413.081 93.78 418.801 84.03 423.871 77.4C426.861 64.14 439.731 52.44 450.131 52.44C461.571 52.44 467.681 65.7 466.771 75.19C466.251 81.69 462.741 91.05 457.541 99.63C467.681 96.12 478.991 84.29 485.881 74.28ZM449.611 57.77C443.891 57.77 436.481 63.1 432.061 70.25C435.831 70.64 444.931 74.02 444.541 78.7C444.281 81.04 439.341 87.8 434.661 94.56C437.131 96.51 439.991 98.07 443.241 99.11C448.961 90.01 453.251 78.18 453.901 72.07C454.681 61.8 454.161 57.77 449.611 57.77ZM428.551 111.72C431.931 111.72 435.441 109.12 438.691 105.35C435.701 104.05 433.101 102.36 430.761 100.15C426.861 106.52 424.521 111.72 428.551 111.72ZM560.042 74.8C562.772 70.64 563.292 78.18 562.382 79.35C555.752 88.19 526.502 125.24 506.612 125.24C499.722 125.24 495.822 119.91 494.652 116.53C490.752 116.27 479.442 114.19 480.222 105.87C481.002 96.64 512.592 29.69 513.892 15.13C514.412 8.88999 528.452 17.34 528.062 22.67C527.802 25.66 517.792 52.44 509.212 75.71C515.972 65.44 524.552 54.13 529.492 54.13C541.842 54.13 545.742 61.93 544.962 71.55C544.312 79.09 537.942 94.69 529.362 107.17C541.582 96.9 554.712 82.34 560.042 74.8ZM496.602 113.41C513.242 109.9 536.252 62.19 531.182 62.19C522.992 62.19 507.262 87.8 500.372 99.63C498.162 106 496.732 110.29 496.602 111.2C496.472 112.11 496.602 112.89 496.602 113.41ZM604.828 74.8C607.688 70.64 607.688 78.31 606.908 79.48C601.838 87.54 582.078 117.7 570.118 119.13C569.988 119.13 569.728 119.13 569.338 119.13C566.738 119.13 553.218 117.7 553.998 108.47C554.778 99.24 572.848 62.58 573.368 57.38C573.888 51.14 587.928 59.72 587.538 64.92C587.148 69.34 576.228 96.38 572.068 108.34C571.418 110.55 571.548 111.85 572.718 111.85C578.308 111.85 596.378 87.15 604.828 74.8ZM587.278 47.37C581.688 47.37 575.578 43.47 575.968 38.92C576.618 32.03 585.718 23.19 592.608 23.19C597.808 23.19 601.318 26.44 600.928 31.9C600.408 37.49 594.688 47.37 587.278 47.37ZM684.904 75.06C687.764 70.9 688.284 78.57 687.504 79.74C682.434 87.67 662.154 118.35 650.064 120.43C647.204 121.47 635.244 116.92 636.024 108.21C636.544 101.58 645.774 82.6 651.364 68.56C641.744 79.09 617.564 106.39 614.054 114.06C613.924 116.27 614.704 117.57 613.534 118.61C611.454 120.43 598.194 115.75 598.974 106.52C599.754 97.29 617.044 66.61 617.954 56.21C618.474 49.97 632.644 58.55 632.124 63.75C631.864 66.87 626.274 80.91 621.334 93.52C628.614 83.77 648.634 57.77 656.174 53.61C656.434 53.35 656.824 53.22 657.214 53.09C657.474 52.96 657.604 52.96 657.864 52.96C658.254 52.96 658.644 52.96 658.904 53.09C663.194 53.87 669.824 59.07 669.564 62.84C669.174 67.26 656.954 97.29 652.664 109.9C652.144 111.72 652.404 112.76 653.444 112.76C659.034 112.76 676.324 87.41 684.904 75.06Z" fill="black"/>
</svg>
